<svg width="47" height="47" viewBox="0 0 47 47" fill="none" xmlns="http://www.w3.org/2000/svg">
<circle cx="23.5" cy="23.5" r="23.5" fill="#FF7A00"/>
<path d="M16.6699 19.4688V28H15.0527L11.4258 22.082V28H9.81445V19.4688H11.4258L15.0645 25.3926V19.4688H16.6699ZM24.5648 26.7344V28H20.0297V26.7344H24.5648ZM20.5219 19.4688V28H18.9105V19.4688H20.5219ZM23.973 22.9902V24.2266H20.0297V22.9902H23.973ZM24.5473 19.4688V20.7402H20.0297V19.4688H24.5473ZM28.3816 26.3652L30.0809 19.4688H31.0008L31.0594 20.9219L29.243 28H28.2703L28.3816 26.3652ZM27.3094 19.4688L28.7039 26.3418V28H27.6434L25.7098 19.4688H27.3094ZM32.823 26.3125L34.1941 19.4688H35.7996L33.866 28H32.8055L32.823 26.3125ZM31.4402 19.4688L33.1395 26.3887L33.2391 28H32.2664L30.4559 20.916L30.5262 19.4688H31.4402ZM39.0656 19.4688L38.8957 25.4395H37.5891L37.4191 19.4688H39.0656ZM37.3723 27.2793C37.3723 27.0488 37.4504 26.8555 37.6066 26.6992C37.7668 26.5391 37.9816 26.459 38.2512 26.459C38.5207 26.459 38.7336 26.5391 38.8898 26.6992C39.05 26.8555 39.1301 27.0488 39.1301 27.2793C39.1301 27.5059 39.05 27.6973 38.8898 27.8535C38.7336 28.0098 38.5207 28.0879 38.2512 28.0879C37.9816 28.0879 37.7668 28.0098 37.6066 27.8535C37.4504 27.6973 37.3723 27.5059 37.3723 27.2793Z" fill="white"/>
</svg>
