<svg width="31" height="31" viewBox="0 0 31 31" fill="none" xmlns="http://www.w3.org/2000/svg">
<path d="M28.0292 11.7154C27.8736 11.5626 27.6818 11.4516 27.4718 11.3929C27.2617 11.3342 27.0402 11.3296 26.8279 11.3796C26.5482 11.4442 26.2624 11.4788 25.9754 11.4829C24.9477 11.4829 23.9621 11.0747 23.2354 10.348C22.5087 9.62126 22.1004 8.63564 22.1004 7.60792C22.1045 7.3209 22.1391 7.03512 22.2037 6.75542C22.2537 6.54313 22.2492 6.32163 22.1904 6.11158C22.1317 5.90153 22.0208 5.70977 21.8679 5.55417C21.7176 5.39222 21.5282 5.27155 21.3178 5.2037C21.1075 5.13586 20.8833 5.12311 20.6667 5.16667C19.3811 5.4505 18.2151 6.12581 17.3292 7.09965C16.4432 8.07349 15.8809 9.29798 15.7196 10.6046C15.0161 10.4172 14.2905 10.3259 13.5625 10.3333C11.701 10.3323 9.90135 11.0013 8.49254 12.218C7.08373 13.4347 6.15991 15.1178 5.89 16.9596C4.83883 17.2544 3.92983 17.9196 3.3309 18.8323C2.73197 19.7451 2.48356 20.8437 2.63156 21.9254C2.77955 23.007 3.31396 23.9986 4.13607 24.7169C4.95817 25.4352 6.01245 25.8318 7.10416 25.8333H18.9487C20.4321 25.8333 21.8547 25.2441 22.9035 24.1952C23.9524 23.1463 24.5417 21.7238 24.5417 20.2404C24.5467 19.3403 24.3293 18.4529 23.9087 17.6571C25.018 17.3473 26.0227 16.7431 26.8164 15.9085C27.61 15.0739 28.163 14.0401 28.4167 12.9167C28.4602 12.7 28.4475 12.4758 28.3796 12.2655C28.3118 12.0552 28.1911 11.8658 28.0292 11.7154V11.7154ZM18.9875 23.25H7.10416C6.59031 23.25 6.0975 23.0459 5.73414 22.6825C5.37079 22.3192 5.16666 21.8264 5.16666 21.3125C5.16666 20.7987 5.37079 20.3058 5.73414 19.9425C6.0975 19.5791 6.59031 19.375 7.10416 19.375C7.44674 19.375 7.77528 19.2389 8.01751 18.9967C8.25975 18.7545 8.39583 18.4259 8.39583 18.0833C8.39902 17.1548 8.65239 16.2442 9.12931 15.4475C9.60622 14.6507 10.289 13.9973 11.1059 13.5558C11.9228 13.1143 12.8436 12.9011 13.7714 12.9386C14.6992 12.9762 15.5998 13.2631 16.3783 13.7692V13.7692C17.3212 14.3825 18.0343 15.291 18.4062 16.3525C18.4801 16.5745 18.6128 16.7722 18.7902 16.9246C18.9677 17.077 19.1832 17.1784 19.4137 17.2179C19.8098 17.2485 20.196 17.3567 20.5502 17.5365C20.9045 17.7163 21.2198 17.964 21.4783 18.2657C21.7368 18.5674 21.9333 18.917 22.0567 19.2946C22.18 19.6722 22.2278 20.0704 22.1973 20.4665C22.1668 20.8625 22.0585 21.2487 21.8787 21.603C21.699 21.9572 21.4512 22.2726 21.1495 22.531C20.8479 22.7895 20.4982 22.986 20.1206 23.1094C19.743 23.2328 19.3448 23.2805 18.9487 23.25H18.9875ZM22.1392 15.3579C21.9586 15.3725 21.7772 15.3725 21.5967 15.3579C21.2986 15.1982 20.9875 15.0643 20.6667 14.9575C20.1346 13.7991 19.3276 12.7881 18.3158 12.0125C18.3158 11.8575 18.3158 11.6896 18.3158 11.5346C18.3158 10.9749 18.437 10.4218 18.6711 9.91342C18.9053 9.40504 19.2467 8.9534 19.6721 8.58959C19.8721 9.96761 20.5121 11.2441 21.4967 12.2287C22.4813 13.2133 23.7578 13.8533 25.1358 14.0533C24.7573 14.4811 24.2889 14.8198 23.7641 15.0453C23.2394 15.2709 22.6712 15.3776 22.1004 15.3579H22.1392Z" fill="black"/>
</svg>
